<mxfile host="app.diagrams.net" modified="2022-05-29T01:45:34.133Z" agent="5.0 (Windows NT 10.0; Win64; x64) AppleWebKit/537.36 (KHTML, like Gecko) Chrome/101.0.4951.67 Safari/537.36" etag="2bLWG2XwkSGJFH9b9GHe" version="18.1.3" type="github">
  <diagram id="p1iauZd5ZaeVkKwpbt0a" name="Page-2">
    <mxGraphModel dx="2942" dy="2222" grid="1" gridSize="10" guides="1" tooltips="1" connect="1" arrows="1" fold="1" page="1" pageScale="1" pageWidth="850" pageHeight="1100" math="0" shadow="0">
      <root>
        <mxCell id="0" />
        <mxCell id="1" parent="0" />
        <mxCell id="7uAn5a7Piwm9yKPKdiZR-1" value="" style="verticalLabelPosition=bottom;verticalAlign=top;html=1;shadow=0;dashed=0;strokeWidth=1;shape=mxgraph.android.phone2;strokeColor=#c0c0c0;" parent="1" vertex="1">
          <mxGeometry x="200" y="-1030" width="470" height="900" as="geometry" />
        </mxCell>
        <mxCell id="7uAn5a7Piwm9yKPKdiZR-4" value="" style="rounded=0;whiteSpace=wrap;html=1;fillColor=#dae8fc;strokeColor=#6c8ebf;" parent="1" vertex="1">
          <mxGeometry x="220" y="-950" width="430" height="90" as="geometry" />
        </mxCell>
        <mxCell id="7uAn5a7Piwm9yKPKdiZR-3" value="" style="shape=image;html=1;verticalAlign=top;verticalLabelPosition=bottom;labelBackgroundColor=#ffffff;imageAspect=0;aspect=fixed;image=https://cdn4.iconfinder.com/data/icons/evil-icons-user-interface/64/menu-128.png" parent="1" vertex="1">
          <mxGeometry x="590" y="-932" width="48" height="48" as="geometry" />
        </mxCell>
        <mxCell id="7uAn5a7Piwm9yKPKdiZR-5" value="&lt;h1 style=&quot;&quot;&gt;&lt;font style=&quot;font-size: 24px;&quot;&gt;Hi, I&#39;m&lt;/font&gt;&lt;/h1&gt;&lt;h1 style=&quot;font-size: 34px;&quot;&gt;&lt;font style=&quot;font-size: 34px;&quot;&gt;Adam Akers&lt;/font&gt;&lt;/h1&gt;" style="text;html=1;strokeColor=none;fillColor=none;align=center;verticalAlign=middle;whiteSpace=wrap;rounded=0;" parent="1" vertex="1">
          <mxGeometry x="332.5" y="-740" width="205" height="110" as="geometry" />
        </mxCell>
        <mxCell id="7uAn5a7Piwm9yKPKdiZR-6" value="&lt;p&gt;&lt;span style=&quot;font-size: 16px;&quot;&gt;Front end developer living in Colorado Springs, CO&lt;/span&gt;&lt;/p&gt;" style="text;html=1;strokeColor=none;fillColor=none;align=center;verticalAlign=middle;whiteSpace=wrap;rounded=0;fontSize=34;lineHeight=normal" parent="1" vertex="1">
          <mxGeometry x="307.5" y="-560" width="255" height="40" as="geometry" />
        </mxCell>
        <mxCell id="7uAn5a7Piwm9yKPKdiZR-11" value="" style="verticalLabelPosition=bottom;verticalAlign=top;html=1;shadow=0;dashed=0;strokeWidth=1;shape=mxgraph.android.phone2;strokeColor=#c0c0c0;" parent="1" vertex="1">
          <mxGeometry x="1100" y="-1020" width="470" height="900" as="geometry" />
        </mxCell>
        <mxCell id="7uAn5a7Piwm9yKPKdiZR-12" value="" style="rounded=0;whiteSpace=wrap;html=1;fillColor=#dae8fc;strokeColor=#6c8ebf;" parent="1" vertex="1">
          <mxGeometry x="1120" y="-938" width="430" height="90" as="geometry" />
        </mxCell>
        <mxCell id="7uAn5a7Piwm9yKPKdiZR-14" value="" style="shape=image;html=1;verticalAlign=top;verticalLabelPosition=bottom;labelBackgroundColor=#ffffff;imageAspect=0;aspect=fixed;image=https://cdn4.iconfinder.com/data/icons/evil-icons-user-interface/64/menu-128.png" parent="1" vertex="1">
          <mxGeometry x="1490" y="-920" width="48" height="48" as="geometry" />
        </mxCell>
        <mxCell id="7uAn5a7Piwm9yKPKdiZR-15" value="" style="shape=image;html=1;verticalAlign=top;verticalLabelPosition=bottom;labelBackgroundColor=#ffffff;imageAspect=0;aspect=fixed;image=https://cdn0.iconfinder.com/data/icons/google-material-design-3-0/48/ic_face_48px-128.png;fontSize=24;strokeColor=default;" parent="1" vertex="1">
          <mxGeometry x="1275" y="-720" width="128" height="128" as="geometry" />
        </mxCell>
        <mxCell id="7uAn5a7Piwm9yKPKdiZR-16" value="" style="image;image=img/lib/atlassian/Atlassian_Logo.svg;fontSize=24;strokeColor=default;" parent="1" vertex="1">
          <mxGeometry x="230" y="-941" width="66" height="66" as="geometry" />
        </mxCell>
        <mxCell id="76p5hlt1II4S2Ar3bMs8-1" value="" style="image;image=img/lib/atlassian/Atlassian_Logo.svg;fontSize=24;strokeColor=default;" vertex="1" parent="1">
          <mxGeometry x="1130" y="-929" width="66" height="66" as="geometry" />
        </mxCell>
        <mxCell id="76p5hlt1II4S2Ar3bMs8-3" value="&lt;h1&gt;About&lt;/h1&gt;&lt;div&gt;&lt;br&gt;&lt;/div&gt;&lt;div&gt;&lt;br&gt;&lt;/div&gt;&lt;div&gt;&lt;br&gt;&lt;/div&gt;&lt;p&gt;Lorem ipsum dolor sit amet, consectetur adipisicing elit, sed do eiusmod tempor incididunt ut labore et dolore magna aliqua.&lt;/p&gt;&lt;p&gt;&lt;br&gt;&lt;/p&gt;&lt;p&gt;Lorem ipsum dolor sit amet, consectetur adipisicing elit, sed do eiusmod tempor incididunt ut labore et dolore magna aliqua.&lt;br&gt;&lt;/p&gt;" style="text;html=1;strokeColor=none;fillColor=none;spacing=5;spacingTop=-20;whiteSpace=wrap;overflow=hidden;rounded=0;fontSize=24;" vertex="1" parent="1">
          <mxGeometry x="1190" y="-800" width="300" height="600" as="geometry" />
        </mxCell>
        <mxCell id="76p5hlt1II4S2Ar3bMs8-9" value="" style="verticalLabelPosition=bottom;verticalAlign=top;html=1;shadow=0;dashed=0;strokeWidth=1;shape=mxgraph.android.phone2;strokeColor=#c0c0c0;" vertex="1" parent="1">
          <mxGeometry x="200" width="470" height="900" as="geometry" />
        </mxCell>
        <mxCell id="76p5hlt1II4S2Ar3bMs8-10" value="" style="rounded=0;whiteSpace=wrap;html=1;fillColor=#dae8fc;strokeColor=#6c8ebf;" vertex="1" parent="1">
          <mxGeometry x="220" y="82" width="430" height="90" as="geometry" />
        </mxCell>
        <mxCell id="76p5hlt1II4S2Ar3bMs8-11" value="" style="shape=image;html=1;verticalAlign=top;verticalLabelPosition=bottom;labelBackgroundColor=#ffffff;imageAspect=0;aspect=fixed;image=https://cdn4.iconfinder.com/data/icons/evil-icons-user-interface/64/menu-128.png" vertex="1" parent="1">
          <mxGeometry x="590" y="100" width="48" height="48" as="geometry" />
        </mxCell>
        <mxCell id="76p5hlt1II4S2Ar3bMs8-12" value="" style="image;image=img/lib/atlassian/Atlassian_Logo.svg;fontSize=24;strokeColor=default;" vertex="1" parent="1">
          <mxGeometry x="230" y="91" width="66" height="66" as="geometry" />
        </mxCell>
        <mxCell id="76p5hlt1II4S2Ar3bMs8-14" value="&lt;h1&gt;Skills&lt;/h1&gt;&lt;div&gt;&lt;br&gt;&lt;/div&gt;" style="text;html=1;strokeColor=none;fillColor=none;spacing=5;spacingTop=-20;whiteSpace=wrap;overflow=hidden;rounded=0;fontSize=24;" vertex="1" parent="1">
          <mxGeometry x="230" y="172" width="300" height="600" as="geometry" />
        </mxCell>
        <mxCell id="76p5hlt1II4S2Ar3bMs8-15" value="" style="image;image=img/lib/atlassian/Bitbucket_Logo.svg;fontSize=24;strokeColor=default;" vertex="1" parent="1">
          <mxGeometry x="270" y="330" width="57" height="50" as="geometry" />
        </mxCell>
        <mxCell id="76p5hlt1II4S2Ar3bMs8-16" value="" style="image;image=img/lib/atlassian/Bitbucket_Logo.svg;fontSize=24;strokeColor=default;" vertex="1" parent="1">
          <mxGeometry x="420" y="330" width="57" height="50" as="geometry" />
        </mxCell>
        <mxCell id="76p5hlt1II4S2Ar3bMs8-17" value="" style="image;image=img/lib/atlassian/Bitbucket_Logo.svg;fontSize=24;strokeColor=default;" vertex="1" parent="1">
          <mxGeometry x="550" y="330" width="57" height="50" as="geometry" />
        </mxCell>
        <mxCell id="76p5hlt1II4S2Ar3bMs8-18" value="" style="image;image=img/lib/atlassian/Bitbucket_Logo.svg;fontSize=24;strokeColor=default;" vertex="1" parent="1">
          <mxGeometry x="270" y="420" width="57" height="50" as="geometry" />
        </mxCell>
        <mxCell id="76p5hlt1II4S2Ar3bMs8-19" value="" style="image;image=img/lib/atlassian/Bitbucket_Logo.svg;fontSize=24;strokeColor=default;" vertex="1" parent="1">
          <mxGeometry x="420" y="420" width="57" height="50" as="geometry" />
        </mxCell>
        <mxCell id="76p5hlt1II4S2Ar3bMs8-20" value="" style="image;image=img/lib/atlassian/Bitbucket_Logo.svg;fontSize=24;strokeColor=default;" vertex="1" parent="1">
          <mxGeometry x="550" y="420" width="57" height="50" as="geometry" />
        </mxCell>
        <mxCell id="76p5hlt1II4S2Ar3bMs8-21" value="" style="image;image=img/lib/atlassian/Bitbucket_Logo.svg;fontSize=24;strokeColor=default;" vertex="1" parent="1">
          <mxGeometry x="270" y="510" width="57" height="50" as="geometry" />
        </mxCell>
      </root>
    </mxGraphModel>
  </diagram>
</mxfile>
